<?xml version="1.0" encoding="UTF-8"?>
<svg width="17px" height="15px" viewBox="0 0 17 15" version="1.1" xmlns="http://www.w3.org/2000/svg" xmlns:xlink="http://www.w3.org/1999/xlink">
    <!-- Generator: Sketch 43.1 (39012) - http://www.bohemiancoding.com/sketch -->
    <title>Fill 39</title>
    <desc>Created with Sketch.</desc>
    <defs></defs>
    <g id="Page-1" stroke="none" stroke-width="1" fill="none" fill-rule="evenodd">
        <g id="icons" transform="translate(-681.000000, -274.000000)" fill="#FFFFFF">
            <path d="M697.824,276.555 C697.824,276.69 697.774,276.808 697.676,276.906 C697.577,277.005 697.46,277.055 697.324,277.055 L695.824,277.055 L695.824,278.555 C695.824,278.69 695.774,278.808 695.676,278.906 C695.577,279.005 695.46,279.055 695.324,279.055 C695.188,279.055 695.071,279.005 694.973,278.906 C694.874,278.808 694.824,278.69 694.824,278.555 L694.824,277.055 L693.324,277.055 C693.188,277.055 693.071,277.005 692.973,276.906 C692.874,276.808 692.824,276.69 692.824,276.555 C692.824,276.419 692.874,276.302 692.973,276.203 C693.071,276.104 693.188,276.055 693.324,276.055 L694.824,276.055 L694.824,274.555 C694.824,274.419 694.874,274.302 694.973,274.203 C695.071,274.104 695.188,274.055 695.324,274.055 C695.46,274.055 695.577,274.104 695.676,274.203 C695.774,274.302 695.824,274.419 695.824,274.555 L695.824,276.055 L697.324,276.055 C697.46,276.055 697.577,276.104 697.676,276.203 C697.774,276.302 697.824,276.419 697.824,276.555 Z M690.824,278.055 C690.824,277.925 690.797,277.798 690.742,277.676 C690.688,277.554 690.614,277.447 690.523,277.355 C690.433,277.265 690.325,277.191 690.203,277.137 C690.081,277.082 689.954,277.055 689.824,277.055 C689.688,277.055 689.562,277.082 689.441,277.137 C689.321,277.191 689.216,277.265 689.125,277.355 C689.034,277.447 688.961,277.554 688.906,277.676 C688.852,277.798 688.824,277.925 688.824,278.055 C688.824,278.19 688.852,278.318 688.906,278.437 C688.961,278.558 689.034,278.663 689.125,278.754 C689.216,278.845 689.321,278.918 689.441,278.973 C689.562,279.027 689.688,279.055 689.824,279.055 C689.954,279.055 690.081,279.027 690.203,278.973 C690.325,278.918 690.433,278.845 690.523,278.754 C690.614,278.663 690.688,278.558 690.742,278.437 C690.797,278.318 690.824,278.19 690.824,278.055 Z M691.824,286.055 L691.824,282.055 L687.824,282.055 L687.824,286.055 C687.824,286.284 687.897,286.469 688.043,286.609 C688.188,286.75 688.364,286.858 688.57,286.934 C688.776,287.009 688.993,287.06 689.223,287.086 C689.452,287.112 689.652,287.125 689.824,287.125 C689.996,287.125 690.196,287.112 690.426,287.086 C690.655,287.06 690.872,287.009 691.078,286.934 C691.284,286.858 691.46,286.75 691.605,286.609 C691.751,286.469 691.824,286.284 691.824,286.055 Z M691.824,278.055 C691.824,278.326 691.771,278.582 691.664,278.824 C691.558,279.066 691.413,279.279 691.23,279.461 C691.048,279.644 690.836,279.788 690.594,279.894 C690.352,280.001 690.095,280.055 689.824,280.055 C689.554,280.055 689.297,280.001 689.055,279.894 C688.813,279.788 688.601,279.644 688.418,279.461 C688.235,279.279 688.091,279.066 687.984,278.824 C687.878,278.582 687.824,278.326 687.824,278.055 C687.824,277.784 687.878,277.527 687.984,277.285 C688.091,277.043 688.235,276.831 688.418,276.648 C688.601,276.466 688.813,276.322 689.055,276.215 C689.297,276.108 689.554,276.055 689.824,276.055 C690.095,276.055 690.352,276.108 690.594,276.215 C690.836,276.322 691.048,276.466 691.23,276.648 C691.413,276.831 691.558,277.043 691.664,277.285 C691.771,277.527 691.824,277.784 691.824,278.055 Z M692.824,286.055 C692.824,286.451 692.729,286.781 692.539,287.047 C692.349,287.312 692.106,287.525 691.813,287.684 C691.519,287.843 691.194,287.956 690.84,288.023 C690.485,288.091 690.147,288.125 689.824,288.125 C689.501,288.125 689.164,288.09 688.813,288.019 C688.461,287.949 688.138,287.835 687.844,287.676 C687.55,287.517 687.306,287.305 687.113,287.039 C686.921,286.773 686.824,286.445 686.824,286.055 L686.824,281.055 L692.824,281.055 L692.824,286.055 Z M684.824,279.055 C684.824,278.925 684.797,278.798 684.742,278.676 C684.688,278.554 684.614,278.447 684.523,278.355 C684.433,278.265 684.325,278.191 684.203,278.137 C684.081,278.082 683.954,278.055 683.824,278.055 C683.688,278.055 683.562,278.082 683.441,278.137 C683.321,278.191 683.216,278.265 683.125,278.355 C683.034,278.447 682.961,278.554 682.906,278.676 C682.852,278.798 682.824,278.925 682.824,279.055 C682.824,279.19 682.852,279.318 682.906,279.437 C682.961,279.558 683.034,279.663 683.125,279.754 C683.216,279.845 683.321,279.918 683.441,279.973 C683.562,280.027 683.688,280.055 683.824,280.055 C683.954,280.055 684.081,280.027 684.203,279.973 C684.325,279.918 684.433,279.845 684.523,279.754 C684.614,279.663 684.688,279.558 684.742,279.437 C684.797,279.318 684.824,279.19 684.824,279.055 Z M685.824,286.617 C685.824,286.748 685.774,286.863 685.676,286.965 C685.577,287.066 685.46,287.117 685.324,287.117 L684.824,287.117 C684.501,287.117 684.163,287.083 683.809,287.016 C683.454,286.948 683.13,286.833 682.836,286.672 C682.542,286.511 682.3,286.297 682.109,286.031 C681.919,285.766 681.824,285.435 681.824,285.039 L681.824,282.055 L685.324,282.055 C685.46,282.055 685.577,282.104 685.676,282.203 C685.774,282.302 685.824,282.419 685.824,282.555 C685.824,282.69 685.774,282.808 685.676,282.906 C685.577,283.005 685.46,283.055 685.324,283.055 L682.824,283.055 L682.824,285.039 C682.824,285.222 682.868,285.375 682.957,285.5 C683.046,285.625 683.161,285.728 683.305,285.809 C683.448,285.89 683.609,285.951 683.789,285.992 C683.969,286.034 684.151,286.064 684.336,286.082 C684.521,286.101 684.7,286.111 684.875,286.113 C685.05,286.116 685.199,286.117 685.324,286.117 C685.46,286.117 685.577,286.167 685.676,286.266 C685.774,286.365 685.824,286.482 685.824,286.617 Z M685.824,279.055 C685.824,279.326 685.771,279.582 685.664,279.824 C685.558,280.066 685.413,280.279 685.23,280.461 C685.048,280.644 684.836,280.788 684.594,280.894 C684.352,281.001 684.095,281.055 683.824,281.055 C683.554,281.055 683.297,281.001 683.055,280.894 C682.813,280.788 682.601,280.644 682.418,280.461 C682.235,280.279 682.091,280.066 681.984,279.824 C681.878,279.582 681.824,279.326 681.824,279.055 C681.824,278.784 681.878,278.527 681.984,278.285 C682.091,278.043 682.235,277.831 682.418,277.648 C682.601,277.466 682.813,277.322 683.055,277.215 C683.297,277.108 683.554,277.055 683.824,277.055 C684.095,277.055 684.352,277.108 684.594,277.215 C684.836,277.322 685.048,277.466 685.23,277.648 C685.413,277.831 685.558,278.043 685.664,278.285 C685.771,278.527 685.824,278.784 685.824,279.055 L685.824,279.055 Z" id="Fill-39"></path>
        </g>
    </g>
</svg>