<?xml version="1.0" encoding="UTF-8"?>
<svg width="17px" height="15px" viewBox="0 0 17 15" version="1.1" xmlns="http://www.w3.org/2000/svg" xmlns:xlink="http://www.w3.org/1999/xlink">
    <!-- Generator: Sketch 43.1 (39012) - http://www.bohemiancoding.com/sketch -->
    <title>Fill 34</title>
    <desc>Created with Sketch.</desc>
    <defs></defs>
    <g id="Page-1" stroke="none" stroke-width="1" fill="none" fill-rule="evenodd">
        <g id="icons" transform="translate(-475.000000, -271.000000)" fill="#9C9BC1">
            <path d="M489.028,285.849 L490.028,285.849 L490.028,276.849 L489.028,276.849 L489.028,285.849 Z M487.028,285.849 L487.028,278.349 L488.028,277.349 L488.028,285.849 L487.028,285.849 Z M485.028,279.349 L485.528,279.849 L486.028,279.349 L486.028,285.849 L485.028,285.849 L485.028,279.349 Z M483.028,285.841 L483.028,277.349 L484.028,278.349 L484.028,285.841 L483.028,285.841 Z M481.028,285.849 L481.028,278.349 L482.028,277.349 L482.028,285.849 L481.028,285.849 Z M479.028,285.849 L479.028,280.349 L480.028,279.349 L480.028,285.849 L479.028,285.849 Z M477.028,285.849 L477.028,282.349 L478.028,281.349 L478.028,285.849 L477.028,285.849 Z M475.028,285.849 L475.028,284.349 L476.028,283.349 L476.028,285.849 L475.028,285.849 Z M487.028,271.849 L491.028,271.849 L491.028,275.849 L490.028,275.849 L490.028,273.56 L485.528,278.052 L482.528,275.052 L475.028,282.56 L475.028,281.138 L482.528,273.645 L485.528,276.645 L489.317,272.849 L487.028,272.849 L487.028,271.849 L487.028,271.849 Z" id="Fill-34"></path>
        </g>
    </g>
</svg>