<?xml version="1.0" encoding="UTF-8"?>
<svg width="16px" height="17px" viewBox="0 0 16 17" version="1.1" xmlns="http://www.w3.org/2000/svg" xmlns:xlink="http://www.w3.org/1999/xlink">
    <!-- Generator: Sketch 43.1 (39012) - http://www.bohemiancoding.com/sketch -->
    <title>Group 37</title>
    <desc>Created with Sketch.</desc>
    <defs>
        <polygon id="path-1" points="15.443 0.087 0.443 0.087 0.443 8.0715 0.443 16.056 15.443 16.056 15.443 0.087"></polygon>
    </defs>
    <g id="Page-1" stroke="none" stroke-width="1" fill="none" fill-rule="evenodd">
        <g id="icons" transform="translate(-636.000000, -274.000000)">
            <g id="Group-37" transform="translate(636.000000, 274.000000)">
                <mask id="mask-2" fill="white">
                    <use xlink:href="#path-1"></use>
                </mask>
                <g id="Clip-36"></g>
                <path d="M4.443,8.056 L9.107,8.056 L9.107,7.056 L4.443,7.056 L4.443,8.056 Z M4.443,5.056 L11.443,5.056 L11.443,4.056 L4.443,4.056 L4.443,5.056 Z M15.443,14.977 C15.443,15.123 15.414,15.262 15.357,15.392 C15.3,15.522 15.222,15.637 15.123,15.735 C15.023,15.834 14.908,15.913 14.775,15.97 C14.643,16.027 14.503,16.056 14.357,16.056 C14.195,16.056 14.042,16.019 13.896,15.946 C13.75,15.873 13.625,15.777 13.521,15.657 L11.068,12.946 L10.967,12.899 C10.461,12.91 9.957,12.934 9.455,12.97 C8.952,13.006 8.448,13.024 7.943,13.024 C7.438,13.024 6.921,13.018 6.393,13.005 C5.863,12.992 5.334,12.962 4.803,12.915 C4.271,12.868 3.746,12.798 3.229,12.704 C2.71,12.61 2.211,12.483 1.732,12.321 C1.352,12.191 1.042,11.993 0.803,11.727 C0.563,11.462 0.443,11.121 0.443,10.704 L0.443,1.626 C0.443,1.413 0.484,1.211 0.568,1.02 C0.651,0.831 0.766,0.664 0.912,0.52 C1.058,0.377 1.226,0.264 1.416,0.181 C1.605,0.098 1.808,0.056 2.021,0.056 L13.865,0.056 C14.078,0.056 14.28,0.098 14.471,0.181 C14.66,0.264 14.828,0.377 14.975,0.52 C15.12,0.664 15.234,0.831 15.318,1.02 C15.401,1.211 15.443,1.413 15.443,1.626 L15.443,14.977 L15.443,14.977 Z" id="Fill-35" fill="#FFFFFF" mask="url(#mask-2)"></path>
            </g>
        </g>
    </g>
</svg>