<?xml version="1.0" encoding="UTF-8"?>
<svg width="17px" height="13px" viewBox="0 0 17 13" version="1.1" xmlns="http://www.w3.org/2000/svg" xmlns:xlink="http://www.w3.org/1999/xlink">
    <!-- Generator: Sketch 43.1 (39012) - http://www.bohemiancoding.com/sketch -->
    <title>Fill 32</title>
    <desc>Created with Sketch.</desc>
    <defs></defs>
    <g id="Page-1" stroke="none" stroke-width="1" fill="none" fill-rule="evenodd">
        <g id="icons" transform="translate(-516.000000, -274.000000)" fill="#FFFFFF">
            <path d="M532.388,284.553 C532.388,284.756 532.347,284.949 532.267,285.131 C532.186,285.314 532.077,285.473 531.942,285.608 C531.807,285.744 531.647,285.852 531.466,285.932 C531.283,286.013 531.091,286.053 530.888,286.053 L529.888,286.053 C529.752,286.053 529.635,286.004 529.536,285.905 C529.437,285.806 529.388,285.689 529.388,285.553 C529.388,285.392 529.433,285.275 529.524,285.202 C529.615,285.129 529.728,285.082 529.86,285.061 C529.993,285.04 530.131,285.035 530.274,285.045 C530.417,285.056 530.541,285.061 530.646,285.061 C530.88,285.061 531.049,285.033 531.153,284.975 C531.257,284.918 531.325,284.837 531.356,284.733 C531.388,284.629 531.396,284.505 531.38,284.362 C531.364,284.219 531.356,284.064 531.356,283.897 C531.356,283.809 531.362,283.715 531.376,283.616 C531.389,283.517 531.415,283.426 531.454,283.342 L531.614,283.135 C531.682,283.081 531.772,283.053 531.888,283.053 C532.022,283.053 532.14,283.103 532.239,283.202 C532.338,283.301 532.388,283.418 532.388,283.553 L532.388,284.553 Z M532.388,276.553 C532.388,276.689 532.338,276.806 532.239,276.905 C532.14,277.004 532.022,277.053 531.888,277.053 C531.705,277.053 531.577,276.996 531.505,276.881 C531.432,276.767 531.386,276.63 531.368,276.471 C531.35,276.312 531.349,276.147 531.364,275.975 C531.38,275.803 531.388,275.663 531.388,275.553 C531.388,275.392 531.342,275.275 531.251,275.202 C531.159,275.129 531.048,275.082 530.915,275.061 C530.782,275.04 530.644,275.035 530.501,275.045 C530.357,275.056 530.233,275.061 530.13,275.061 L529.864,275.045 L529.626,274.975 L529.454,274.819 C529.409,274.751 529.388,274.663 529.388,274.553 C529.388,274.418 529.437,274.301 529.536,274.202 C529.635,274.103 529.752,274.053 529.888,274.053 L530.888,274.053 C531.091,274.053 531.283,274.094 531.466,274.174 C531.647,274.255 531.807,274.363 531.942,274.498 C532.077,274.634 532.186,274.793 532.267,274.975 C532.347,275.158 532.388,275.35 532.388,275.553 L532.388,276.553 Z M519.388,283.053 L529.388,283.053 L529.388,277.053 L519.388,277.053 L519.388,283.053 Z M530.388,283.553 C530.388,283.689 530.338,283.806 530.239,283.905 C530.14,284.004 530.022,284.053 529.888,284.053 L518.888,284.053 C518.752,284.053 518.635,284.004 518.536,283.905 C518.437,283.806 518.388,283.689 518.388,283.553 L518.388,276.553 C518.388,276.418 518.437,276.301 518.536,276.202 C518.635,276.103 518.752,276.053 518.888,276.053 L529.888,276.053 C530.022,276.053 530.14,276.103 530.239,276.202 C530.338,276.301 530.388,276.418 530.388,276.553 L530.388,283.553 Z M519.388,285.553 C519.388,285.689 519.338,285.806 519.239,285.905 C519.14,286.004 519.022,286.053 518.888,286.053 L517.888,286.053 C517.685,286.053 517.491,286.013 517.31,285.932 C517.127,285.852 516.968,285.744 516.833,285.608 C516.697,285.473 516.589,285.314 516.509,285.131 C516.428,284.949 516.388,284.756 516.388,284.553 L516.388,283.553 C516.388,283.418 516.438,283.301 516.537,283.202 C516.637,283.103 516.755,283.053 516.892,283.053 C517.054,283.053 517.172,283.099 517.246,283.19 C517.319,283.281 517.366,283.393 517.388,283.526 C517.408,283.659 517.413,283.797 517.403,283.94 C517.393,284.083 517.388,284.207 517.388,284.311 C517.388,284.545 517.416,284.715 517.473,284.819 C517.53,284.923 517.61,284.991 517.715,285.022 C517.818,285.053 517.941,285.061 518.084,285.045 C518.227,285.03 518.381,285.022 518.547,285.022 C518.635,285.022 518.729,285.029 518.827,285.041 C518.926,285.055 519.017,285.081 519.1,285.12 L519.306,285.28 C519.36,285.348 519.388,285.439 519.388,285.553 Z M519.388,274.553 C519.388,274.736 519.33,274.863 519.216,274.936 C519.103,275.009 518.966,275.055 518.808,275.073 C518.649,275.091 518.484,275.092 518.313,275.077 C518.143,275.061 518.002,275.053 517.894,275.053 C517.728,275.053 517.609,275.099 517.539,275.19 C517.469,275.281 517.424,275.393 517.403,275.526 C517.382,275.659 517.377,275.797 517.388,275.94 C517.397,276.083 517.403,276.207 517.403,276.311 L517.388,276.577 L517.316,276.815 L517.159,276.987 C517.091,277.031 517.002,277.053 516.892,277.053 C516.755,277.053 516.637,277.004 516.537,276.905 C516.438,276.806 516.388,276.689 516.388,276.553 L516.388,275.553 C516.388,275.35 516.428,275.158 516.509,274.975 C516.589,274.793 516.697,274.634 516.833,274.498 C516.968,274.363 517.127,274.255 517.31,274.174 C517.491,274.094 517.685,274.053 517.888,274.053 L518.888,274.053 C519.022,274.053 519.14,274.103 519.239,274.202 C519.338,274.301 519.388,274.418 519.388,274.553 L519.388,274.553 Z" id="Fill-32"></path>
        </g>
    </g>
</svg>