<?xml version="1.0" encoding="UTF-8"?>
<svg width="16px" height="17px" viewBox="0 0 16 17" version="1.1" xmlns="http://www.w3.org/2000/svg" xmlns:xlink="http://www.w3.org/1999/xlink">
    <!-- Generator: Sketch 43.1 (39012) - http://www.bohemiancoding.com/sketch -->
    <title>Group</title>
    <desc>Created with Sketch.</desc>
    <defs></defs>
    <g id="Page-1" stroke="none" stroke-width="1" fill="none" fill-rule="evenodd">
        <g id="icons" transform="translate(-595.000000, -273.000000)">
            <g id="Group" transform="translate(595.000000, 273.000000)">
                <path d="M0.977,2.468 C0.977,2.254 1.02,2.053 1.102,1.862 C1.186,1.672 1.301,1.506 1.445,1.362 C1.592,1.219 1.76,1.105 1.949,1.022 C2.141,0.939 2.342,0.897 2.555,0.897 L14.398,0.897 C14.613,0.897 14.814,0.939 15.004,1.022 C15.195,1.105 15.363,1.219 15.508,1.362 C15.654,1.506 15.77,1.672 15.852,1.862 C15.936,2.053 15.977,2.254 15.977,2.468 L15.977,11.546 C15.977,11.963 15.857,12.304 15.617,12.569 C15.379,12.835 15.068,13.033 14.688,13.163 C14.209,13.324 13.711,13.452 13.191,13.546 C12.674,13.64 12.148,13.71 11.617,13.757 C11.086,13.804 10.557,13.834 10.027,13.847 C9.5,13.859 8.982,13.866 8.477,13.866 C7.973,13.866 7.469,13.848 6.965,13.811 C6.463,13.775 5.959,13.752 5.453,13.741 L5.352,13.788 L2.898,16.499 C2.795,16.619 2.67,16.715 2.523,16.788 C2.379,16.861 2.225,16.897 2.063,16.897 C1.918,16.897 1.777,16.869 1.645,16.811 C1.512,16.754 1.396,16.676 1.297,16.577 C1.199,16.478 1.121,16.363 1.063,16.233 C1.006,16.103 0.977,15.965 0.977,15.819 L0.977,2.468" id="Fill-5" fill="#FFFFFF"></path>
                <path d="M5.231,5.244 C4.853,5.244 4.55,5.389 4.321,5.676 C4.097,5.962 3.985,6.34 3.985,6.812 C3.985,7.291 4.097,7.67 4.321,7.948 C4.546,8.227 4.841,8.366 5.206,8.366 C5.581,8.366 5.878,8.231 6.099,7.962 C6.319,7.687 6.429,7.311 6.429,6.832 C6.429,6.334 6.323,5.943 6.108,5.663 C5.897,5.384 5.604,5.244 5.231,5.244 Z M5.185,9.307 C4.493,9.307 3.929,9.082 3.493,8.633 C3.058,8.179 2.839,7.591 2.839,6.869 C2.839,6.107 3.06,5.489 3.503,5.016 C3.944,4.543 4.53,4.308 5.263,4.308 C5.952,4.308 6.511,4.533 6.935,4.985 C7.362,5.435 7.575,6.03 7.575,6.771 C7.575,7.529 7.354,8.142 6.911,8.609 L6.868,8.654 L6.823,8.696 L8.048,9.873 L6.524,9.873 L5.884,9.223 C5.671,9.278 5.438,9.307 5.185,9.307 L5.185,9.307 Z" id="Fill-6" fill="#262728"></path>
                <polygon id="Fill-7" fill="#262728" points="8.405 10.848 8.903 10.848 8.903 3.943 8.405 3.943"></polygon>
                <path d="M12.501,7.311 L11.981,5.686 C11.944,5.564 11.917,5.42 11.901,5.251 L11.874,5.251 C11.862,5.393 11.835,5.533 11.79,5.673 L11.265,7.311 L12.501,7.311 Z M14.28,9.223 L13.095,9.223 L12.751,8.147 L11.03,8.147 L10.69,9.223 L9.511,9.223 L11.271,4.389 L12.562,4.389 L14.28,9.223 L14.28,9.223 Z" id="Fill-8" fill="#262728"></path>
            </g>
        </g>
    </g>
</svg>